<svg width="24" height="24" viewBox="0 0 24 24" fill="none" xmlns="http://www.w3.org/2000/svg">
<g clip-path="url(#clip0)">
<path d="M12 2.16211C15.2044 2.16211 15.5835 2.1745 16.8492 2.23213C18.0191 2.28548 18.6545 2.48078 19.0775 2.64512C19.6377 2.86281 20.0373 3.12289 20.4574 3.54255C20.8776 3.96268 21.1377 4.36233 21.3549 4.92251C21.5192 5.3455 21.7145 5.98094 21.7679 7.15083C21.8255 8.41599 21.8379 8.79564 21.8379 12C21.8379 15.2043 21.8255 15.5835 21.7679 16.8491C21.7145 18.019 21.5192 18.6545 21.3549 19.0775C21.1372 19.6376 20.8771 20.0373 20.4574 20.4574C20.0373 20.8776 19.6377 21.1376 19.0775 21.3548C18.6545 21.5192 18.0191 21.7145 16.8492 21.7678C15.584 21.8255 15.2044 21.8379 12 21.8379C8.79565 21.8379 8.41601 21.8255 7.15084 21.7678C5.98095 21.7145 5.34551 21.5192 4.92252 21.3548C4.36234 21.1372 3.96269 20.8771 3.54255 20.4574C3.12242 20.0373 2.86234 19.6376 2.64513 19.0775C2.48079 18.6545 2.28549 18.019 2.23214 16.8491C2.1745 15.584 2.16212 15.2043 2.16212 12C2.16212 8.79564 2.1745 8.41647 2.23214 7.15083C2.28549 5.98094 2.48079 5.3455 2.64513 4.92251C2.86281 4.36233 3.1229 3.96268 3.54255 3.54255C3.96269 3.12242 4.36234 2.86233 4.92252 2.64512C5.34551 2.48078 5.98095 2.28548 7.15084 2.23213C8.41648 2.1745 8.79565 2.16211 12 2.16211ZM12 0C8.74087 0 8.33217 0.0138139 7.05224 0.0724038C5.77517 0.130517 4.90299 0.333439 4.13941 0.630199C3.35011 0.936963 2.68085 1.34709 2.01397 2.01445C1.34709 2.68132 0.936488 3.35058 0.6302 4.1394C0.333439 4.90298 0.130518 5.77516 0.0724039 7.05223C0.0138139 8.33216 0 8.74086 0 12C0 15.2591 0.0138139 15.6678 0.0724039 16.9477C0.130518 18.2248 0.333439 19.097 0.6302 19.8606C0.936964 20.6499 1.34709 21.3191 2.01445 21.986C2.6818 22.6534 3.35059 23.0635 4.13989 23.3702C4.90299 23.667 5.77564 23.8699 7.05272 23.928C8.33265 23.9866 8.74135 24.0004 12.0005 24.0004C15.2596 24.0004 15.6683 23.9866 16.9482 23.928C18.2253 23.8699 19.098 23.667 19.8611 23.3702C20.6504 23.0635 21.3196 22.6534 21.9865 21.986C22.6539 21.3186 23.064 20.6499 23.3708 19.8606C23.6675 19.0975 23.8704 18.2248 23.9286 16.9477C23.9871 15.6678 24.001 15.2591 24.001 12C24.001 8.74086 23.9871 8.33216 23.9286 7.05223C23.8704 5.77516 23.6675 4.9025 23.3708 4.1394C23.064 3.35011 22.6539 2.68085 21.9865 2.01397C21.3192 1.34662 20.6504 0.936487 19.8611 0.629723C19.097 0.333439 18.2248 0.130517 16.9478 0.0724038C15.6678 0.0138139 15.2591 0 12 0Z" fill="#9A1D5A"/>
<path d="M12 5.83804C8.59654 5.83804 5.83804 8.59701 5.83804 12C5.83804 15.403 8.59701 18.162 12 18.162C15.403 18.162 18.162 15.403 18.162 12C18.162 8.59701 15.4035 5.83804 12 5.83804ZM12 15.9998C9.79073 15.9998 8.00016 14.2088 8.00016 12C8.00016 9.79073 9.7912 8.00016 12 8.00016C14.2088 8.00016 15.9998 9.7912 15.9998 12C15.9998 14.2093 14.2093 15.9998 12 15.9998Z" fill="#9A1D5A"/>
<path d="M18.4058 7.03414C19.2011 7.03414 19.8458 6.38944 19.8458 5.59416C19.8458 4.79888 19.2011 4.15417 18.4058 4.15417C17.6106 4.15417 16.9659 4.79888 16.9659 5.59416C16.9659 6.38944 17.6106 7.03414 18.4058 7.03414Z" fill="#9A1D5A"/>
</g>
<defs>
<clipPath id="clip0">
<rect width="24" height="24" fill="white"/>
</clipPath>
</defs>
</svg>
